<svg width="176" height="28" viewBox="0 0 176 28" fill="none" xmlns="http://www.w3.org/2000/svg">
<path d="M0.484 27V1.872H16V5.94H5.524V12.384H13.552V16.38H5.524V27H0.484ZM18.2778 16.956C18.2778 10.728 22.3098 6.732 27.3858 6.732C30.5898 6.732 32.7858 8.244 33.9738 9.9V7.056H39.0498V27H33.9738V24.084C32.7858 25.812 30.5178 27.324 27.3498 27.324C22.3098 27.324 18.2778 23.184 18.2778 16.956ZM33.9738 17.028C33.9738 13.248 31.4538 11.16 28.6818 11.16C25.9818 11.16 23.4258 13.176 23.4258 16.956C23.4258 20.736 25.9818 22.896 28.6818 22.896C31.4538 22.896 33.9738 20.808 33.9738 17.028ZM49.0123 17.064V27H43.9723V7.056H49.0123V10.152C50.2723 8.1 52.3603 6.768 55.1323 6.768V12.06H53.8003C50.8123 12.06 49.0123 13.212 49.0123 17.064ZM86.427 27V15.984C86.427 12.816 84.663 11.16 81.999 11.16C79.299 11.16 77.535 12.816 77.535 15.984V27H72.495V15.984C72.495 12.816 70.731 11.16 68.067 11.16C65.331 11.16 63.567 12.816 63.567 15.984V27H58.527V7.056H63.567V9.468C64.827 7.812 66.951 6.768 69.435 6.768C72.531 6.768 75.087 8.1 76.455 10.584C77.751 8.316 80.379 6.768 83.295 6.768C88.083 6.768 91.467 9.792 91.467 15.3V27H86.427Z" fill="#018383"/>
<path d="M96.2496 27V1.872H111.766V5.94H101.29V12.384H109.318V16.38H101.29V27H96.2496ZM115.339 27V0.36H120.379V27H115.339ZM144.619 17.028C144.619 23.292 140.011 27.324 134.215 27.324C128.455 27.324 124.099 23.292 124.099 17.028C124.099 10.728 128.599 6.732 134.359 6.732C140.119 6.732 144.619 10.728 144.619 17.028ZM129.211 17.028C129.211 20.988 131.515 22.932 134.215 22.932C136.879 22.932 139.435 20.988 139.435 17.028C139.435 13.032 136.951 11.124 134.287 11.124C131.623 11.124 129.211 13.032 129.211 17.028ZM151.952 27L146.084 7.056H151.196L154.724 22.248L158.54 7.056H163.868L167.612 22.212L171.14 7.056H175.964L170.132 27H164.696L161.06 13.068L157.424 27H151.952Z" fill="#42E6A4"/>
</svg>
