<svg width="140" height="25" viewBox="0 0 140 25" fill="none" xmlns="http://www.w3.org/2000/svg">
<path d="M8 11.5133L10.7667 13.1867C11.2733 13.4933 11.8933 13.04 11.76 12.4667L11.0267 9.31999L13.4733 7.19999C13.92 6.81332 13.68 6.07999 13.0933 6.03332L9.87334 5.75999L8.61334 2.78665C8.38667 2.24665 7.61334 2.24665 7.38667 2.78665L6.12667 5.75332L2.90667 6.02665C2.32 6.07332 2.08 6.80665 2.52667 7.19332L4.97334 9.31332L4.24 12.46C4.10667 13.0333 4.72667 13.4867 5.23334 13.18L8 11.5133Z" fill="#42E6A4"/>
<path d="M21 11.5133L23.7667 13.1867C24.2733 13.4933 24.8933 13.04 24.76 12.4667L24.0267 9.31999L26.4733 7.19999C26.92 6.81332 26.68 6.07999 26.0933 6.03332L22.8733 5.75999L21.6133 2.78665C21.3867 2.24665 20.6133 2.24665 20.3867 2.78665L19.1267 5.75332L15.9067 6.02665C15.32 6.07332 15.08 6.80665 15.5267 7.19332L17.9733 9.31332L17.24 12.46C17.1067 13.0333 17.7267 13.4867 18.2333 13.18L21 11.5133Z" fill="#42E6A4"/>
<path d="M34 11.5133L36.7667 13.1867C37.2733 13.4933 37.8933 13.04 37.76 12.4667L37.0267 9.31999L39.4733 7.19999C39.92 6.81332 39.68 6.07999 39.0933 6.03332L35.8733 5.75999L34.6133 2.78665C34.3867 2.24665 33.6133 2.24665 33.3867 2.78665L32.1267 5.75332L28.9067 6.02665C28.32 6.07332 28.08 6.80665 28.5267 7.19332L30.9733 9.31332L30.24 12.46C30.1067 13.0333 30.7267 13.4867 31.2333 13.18L34 11.5133Z" fill="#42E6A4"/>
<path d="M47 11.5133L49.7667 13.1867C50.2733 13.4933 50.8933 13.04 50.76 12.4667L50.0267 9.31999L52.4733 7.19999C52.92 6.81332 52.68 6.07999 52.0933 6.03332L48.8733 5.75999L47.6133 2.78665C47.3867 2.24665 46.6133 2.24665 46.3867 2.78665L45.1267 5.75332L41.9067 6.02665C41.32 6.07332 41.08 6.80665 41.5267 7.19332L43.9733 9.31332L43.24 12.46C43.1067 13.0333 43.7267 13.4867 44.2333 13.18L47 11.5133Z" fill="#42E6A4"/>
<path d="M60 11.5133L62.7667 13.1867C63.2733 13.4933 63.8933 13.04 63.76 12.4667L63.0267 9.31999L65.4733 7.19999C65.92 6.81332 65.68 6.07999 65.0933 6.03332L61.8733 5.75999L60.6133 2.78665C60.3867 2.24665 59.6133 2.24665 59.3867 2.78665L58.1267 5.75332L54.9067 6.02665C54.32 6.07332 54.08 6.80665 54.5267 7.19332L56.9733 9.31332L56.24 12.46C56.1067 13.0333 56.7267 13.4867 57.2333 13.18L60 11.5133Z" fill="#42E6A4"/>
<path d="M77.34 15.232H75.924C74.34 13.708 73.488 11.248 73.488 8.632C73.488 6.016 74.34 3.412 76.164 1.792H77.58V1.924C75.66 3.688 74.808 6.256 74.808 8.632C74.808 11.008 75.66 13.372 77.34 15.1V15.232ZM79.5623 13V5.5H78.4463V4.252H80.9423V13H79.5623ZM83.7576 13V5.5H82.6416V4.252H85.1376V13H83.7576ZM86.9089 12.88V11.884C88.9729 10.072 91.1449 8.488 91.1449 6.772C91.1449 5.86 90.7489 5.236 89.7289 5.236C88.7689 5.236 88.2529 5.908 88.2169 6.892H86.8969C86.9449 4.996 88.1689 4.072 89.7169 4.072C91.4929 4.072 92.5009 5.14 92.5009 6.712C92.5009 8.836 90.3409 10.456 88.9369 11.74H92.7409V12.88H86.9089ZM93.7867 15.232V15.1C95.4667 13.372 96.3187 11.008 96.3187 8.632C96.3187 6.256 95.4667 3.688 93.5467 1.924V1.792H94.9627C96.7867 3.412 97.6387 6.016 97.6387 8.632C97.6387 11.248 96.7867 13.708 95.2027 15.232H93.7867Z" fill="#5B5B5B"/>
</svg>
