<svg width="175" height="47" viewBox="0 0 175 47" fill="none" xmlns="http://www.w3.org/2000/svg">
<path d="M0.968 1.072H11.912V37.552H26.248V46H0.968V1.072ZM75.692 23.408C75.692 36.912 65.452 46.448 52.716 46.448C39.98 46.448 29.612 36.912 29.612 23.408C29.612 9.904 39.98 0.431999 52.716 0.431999C65.516 0.431999 75.692 9.904 75.692 23.408ZM40.812 23.408C40.812 31.28 45.42 36.464 52.716 36.464C59.884 36.464 64.556 31.28 64.556 23.408C64.556 15.408 59.884 10.352 52.716 10.352C45.42 10.352 40.812 15.408 40.812 23.408ZM102.773 0.559998C113.525 0.559998 121.333 6.064 123.701 15.28H111.604C109.941 12.272 106.869 10.672 102.773 10.672C95.7325 10.672 91.0605 15.664 91.0605 23.472C91.0605 31.792 95.7965 36.656 103.669 36.656C109.109 36.656 112.885 33.776 114.549 28.72H100.661V20.656H124.469V30.832C122.165 38.576 114.677 46.32 102.837 46.32C89.3965 46.32 79.9245 36.912 79.9245 23.472C79.9245 10.032 89.3325 0.559998 102.773 0.559998ZM174.755 23.408C174.755 36.912 164.515 46.448 151.779 46.448C139.043 46.448 128.674 36.912 128.674 23.408C128.674 9.904 139.043 0.431999 151.779 0.431999C164.579 0.431999 174.755 9.904 174.755 23.408ZM139.875 23.408C139.875 31.28 144.483 36.464 151.779 36.464C158.947 36.464 163.619 31.28 163.619 23.408C163.619 15.408 158.947 10.352 151.779 10.352C144.483 10.352 139.875 15.408 139.875 23.408Z" fill="white"/>
</svg>
