<svg width="96" height="96" viewBox="0 0 96 96" fill="none" xmlns="http://www.w3.org/2000/svg">
<path d="M24 42C22.4087 42 20.8826 42.6321 19.7574 43.7574C18.6321 44.8826 18 46.4087 18 48C18 49.5913 18.6321 51.1174 19.7574 52.2426C20.8826 53.3679 22.4087 54 24 54C25.5913 54 27.1174 53.3679 28.2426 52.2426C29.3679 51.1174 30 49.5913 30 48C30 46.4087 29.3679 44.8826 28.2426 43.7574C27.1174 42.6321 25.5913 42 24 42ZM42 48C42 46.4087 42.6321 44.8826 43.7574 43.7574C44.8826 42.6321 46.4087 42 48 42C49.5913 42 51.1174 42.6321 52.2426 43.7574C53.3679 44.8826 54 46.4087 54 48C54 49.5913 53.3679 51.1174 52.2426 52.2426C51.1174 53.3679 49.5913 54 48 54C46.4087 54 44.8826 53.3679 43.7574 52.2426C42.6321 51.1174 42 49.5913 42 48ZM66 48C66 46.4087 66.6321 44.8826 67.7574 43.7574C68.8826 42.6321 70.4087 42 72 42C73.5913 42 75.1174 42.6321 76.2426 43.7574C77.3679 44.8826 78 46.4087 78 48C78 49.5913 77.3679 51.1174 76.2426 52.2426C75.1174 53.3679 73.5913 54 72 54C70.4087 54 68.8826 53.3679 67.7574 52.2426C66.6321 51.1174 66 49.5913 66 48Z" fill="#02A8A8"/>
</svg>
